<mxfile>
    <diagram id="okyHbANt9XHcZrDEkdiz" name="Page-1">
        <mxGraphModel dx="746" dy="736" grid="1" gridSize="10" guides="1" tooltips="1" connect="1" arrows="1" fold="1" page="1" pageScale="1" pageWidth="850" pageHeight="1100" math="0" shadow="0">
            <root>
                <mxCell id="0"/>
                <mxCell id="1" parent="0"/>
                <mxCell id="96" value="" style="whiteSpace=wrap;html=1;" parent="1" vertex="1">
                    <mxGeometry x="80" y="240" width="290" height="440" as="geometry"/>
                </mxCell>
                <mxCell id="70" style="edgeStyle=orthogonalEdgeStyle;rounded=0;orthogonalLoop=1;jettySize=auto;html=1;exitX=0.25;exitY=0;exitDx=0;exitDy=0;startArrow=classic;startFill=1;" parent="1" source="69" edge="1">
                    <mxGeometry relative="1" as="geometry">
                        <mxPoint x="335.0588235294117" y="70" as="targetPoint"/>
                    </mxGeometry>
                </mxCell>
                <mxCell id="72" style="edgeStyle=orthogonalEdgeStyle;rounded=0;orthogonalLoop=1;jettySize=auto;html=1;exitX=0.5;exitY=0;exitDx=0;exitDy=0;startArrow=classic;startFill=1;" parent="1" source="69" edge="1">
                    <mxGeometry relative="1" as="geometry">
                        <mxPoint x="410.3529411764707" y="70" as="targetPoint"/>
                    </mxGeometry>
                </mxCell>
                <mxCell id="99" style="edgeStyle=orthogonalEdgeStyle;rounded=0;orthogonalLoop=1;jettySize=auto;html=1;exitX=0.25;exitY=1;exitDx=0;exitDy=0;entryX=1;entryY=0.5;entryDx=0;entryDy=0;startArrow=none;startFill=0;" parent="1" source="69" target="98" edge="1">
                    <mxGeometry relative="1" as="geometry">
                        <Array as="points">
                            <mxPoint x="350" y="180"/>
                            <mxPoint x="350" y="610"/>
                        </Array>
                    </mxGeometry>
                </mxCell>
                <mxCell id="69" value="Modulation top" style="whiteSpace=wrap;html=1;" parent="1" vertex="1">
                    <mxGeometry x="50" y="120" width="690" height="60" as="geometry"/>
                </mxCell>
                <mxCell id="71" value="GPIO_0&lt;br&gt;36 bit" style="text;html=1;align=center;verticalAlign=middle;resizable=0;points=[];autosize=1;" parent="1" vertex="1">
                    <mxGeometry x="335" y="75" width="60" height="30" as="geometry"/>
                </mxCell>
                <mxCell id="73" value="GPIO_1&lt;br&gt;36 bit" style="text;html=1;align=center;verticalAlign=middle;resizable=0;points=[];autosize=1;" parent="1" vertex="1">
                    <mxGeometry x="410" y="75" width="60" height="30" as="geometry"/>
                </mxCell>
                <mxCell id="74" value="" style="whiteSpace=wrap;html=1;" parent="1" vertex="1">
                    <mxGeometry x="440" y="240" width="290" height="440" as="geometry"/>
                </mxCell>
                <mxCell id="77" style="edgeStyle=orthogonalEdgeStyle;rounded=0;orthogonalLoop=1;jettySize=auto;html=1;exitX=0.75;exitY=1;exitDx=0;exitDy=0;entryX=0.75;entryY=0;entryDx=0;entryDy=0;startArrow=none;startFill=0;" parent="1" source="75" target="79" edge="1">
                    <mxGeometry relative="1" as="geometry"/>
                </mxCell>
                <mxCell id="75" value="FIFO_IN" style="whiteSpace=wrap;html=1;" parent="1" vertex="1">
                    <mxGeometry x="590" y="120" width="120" height="60" as="geometry"/>
                </mxCell>
                <mxCell id="76" value="Daughterboard" style="whiteSpace=wrap;html=1;" parent="1" vertex="1">
                    <mxGeometry x="290" y="10" width="160" height="60" as="geometry"/>
                </mxCell>
                <mxCell id="78" value="read_en, bitstream, empty&lt;br&gt;1 bit" style="text;html=1;align=center;verticalAlign=middle;resizable=0;points=[];autosize=1;" parent="1" vertex="1">
                    <mxGeometry x="680" y="195" width="150" height="30" as="geometry"/>
                </mxCell>
                <mxCell id="82" style="edgeStyle=orthogonalEdgeStyle;rounded=0;orthogonalLoop=1;jettySize=auto;html=1;exitX=0.75;exitY=1;exitDx=0;exitDy=0;entryX=0.75;entryY=0;entryDx=0;entryDy=0;startArrow=none;startFill=0;" parent="1" source="79" target="81" edge="1">
                    <mxGeometry relative="1" as="geometry"/>
                </mxCell>
                <mxCell id="79" value="Buffer" style="whiteSpace=wrap;html=1;" parent="1" vertex="1">
                    <mxGeometry x="590" y="290" width="120" height="60" as="geometry"/>
                </mxCell>
                <mxCell id="84" style="edgeStyle=orthogonalEdgeStyle;rounded=0;orthogonalLoop=1;jettySize=auto;html=1;exitX=0.25;exitY=0;exitDx=0;exitDy=0;entryX=0.25;entryY=1;entryDx=0;entryDy=0;startArrow=none;startFill=0;" parent="1" source="81" target="79" edge="1">
                    <mxGeometry relative="1" as="geometry"/>
                </mxCell>
                <mxCell id="87" style="edgeStyle=orthogonalEdgeStyle;rounded=0;orthogonalLoop=1;jettySize=auto;html=1;exitX=0.25;exitY=1;exitDx=0;exitDy=0;entryX=0.25;entryY=0;entryDx=0;entryDy=0;startArrow=none;startFill=0;" parent="1" source="81" target="86" edge="1">
                    <mxGeometry relative="1" as="geometry"/>
                </mxCell>
                <mxCell id="88" style="edgeStyle=orthogonalEdgeStyle;rounded=0;orthogonalLoop=1;jettySize=auto;html=1;exitX=0.75;exitY=1;exitDx=0;exitDy=0;entryX=0.75;entryY=0;entryDx=0;entryDy=0;startArrow=none;startFill=0;" parent="1" source="81" target="86" edge="1">
                    <mxGeometry relative="1" as="geometry"/>
                </mxCell>
                <mxCell id="81" value="modulation" style="whiteSpace=wrap;html=1;" parent="1" vertex="1">
                    <mxGeometry x="590" y="390" width="120" height="60" as="geometry"/>
                </mxCell>
                <mxCell id="83" value="data&lt;br&gt;2 bit" style="text;html=1;align=center;verticalAlign=middle;resizable=0;points=[];autosize=1;" parent="1" vertex="1">
                    <mxGeometry x="680" y="350" width="40" height="30" as="geometry"/>
                </mxCell>
                <mxCell id="85" value="rdy&lt;br&gt;1 bit" style="text;html=1;align=center;verticalAlign=middle;resizable=0;points=[];autosize=1;" parent="1" vertex="1">
                    <mxGeometry x="585" y="355" width="40" height="30" as="geometry"/>
                </mxCell>
                <mxCell id="91" style="edgeStyle=orthogonalEdgeStyle;rounded=0;orthogonalLoop=1;jettySize=auto;html=1;exitX=0;exitY=0.5;exitDx=0;exitDy=0;startArrow=none;startFill=0;" parent="1" source="86" edge="1">
                    <mxGeometry relative="1" as="geometry">
                        <mxPoint x="490" y="186" as="targetPoint"/>
                    </mxGeometry>
                </mxCell>
                <mxCell id="93" style="edgeStyle=orthogonalEdgeStyle;rounded=0;orthogonalLoop=1;jettySize=auto;html=1;exitX=0;exitY=0.75;exitDx=0;exitDy=0;entryX=0.75;entryY=1;entryDx=0;entryDy=0;startArrow=none;startFill=0;" parent="1" source="86" target="69" edge="1">
                    <mxGeometry relative="1" as="geometry"/>
                </mxCell>
                <mxCell id="86" value="sender" style="whiteSpace=wrap;html=1;" parent="1" vertex="1">
                    <mxGeometry x="590" y="500" width="120" height="60" as="geometry"/>
                </mxCell>
                <mxCell id="89" value="sin and cos wave&lt;br&gt;2 x 14 bit" style="text;html=1;align=center;verticalAlign=middle;resizable=0;points=[];autosize=1;" parent="1" vertex="1">
                    <mxGeometry x="680" y="465" width="110" height="30" as="geometry"/>
                </mxCell>
                <mxCell id="90" value="valid&lt;br&gt;1 bit" style="text;html=1;align=center;verticalAlign=middle;resizable=0;points=[];autosize=1;" parent="1" vertex="1">
                    <mxGeometry x="585" y="450" width="40" height="30" as="geometry"/>
                </mxCell>
                <mxCell id="92" value="data to send&lt;br&gt;2 x 14 bit" style="text;html=1;align=center;verticalAlign=middle;resizable=0;points=[];autosize=1;" parent="1" vertex="1">
                    <mxGeometry x="500" y="205" width="80" height="30" as="geometry"/>
                </mxCell>
                <mxCell id="94" value="write" style="text;html=1;align=center;verticalAlign=middle;resizable=0;points=[];autosize=1;" parent="1" vertex="1">
                    <mxGeometry x="450" y="205" width="40" height="20" as="geometry"/>
                </mxCell>
                <mxCell id="95" value="sender_top" style="text;html=1;align=center;verticalAlign=middle;resizable=0;points=[];autosize=1;" parent="1" vertex="1">
                    <mxGeometry x="560" y="240" width="80" height="20" as="geometry"/>
                </mxCell>
                <mxCell id="97" value="FIFO_OUT" style="whiteSpace=wrap;html=1;" parent="1" vertex="1">
                    <mxGeometry x="90" y="120" width="120" height="60" as="geometry"/>
                </mxCell>
                <mxCell id="102" style="edgeStyle=orthogonalEdgeStyle;rounded=0;orthogonalLoop=1;jettySize=auto;html=1;exitX=0;exitY=0.5;exitDx=0;exitDy=0;entryX=0.5;entryY=1;entryDx=0;entryDy=0;startArrow=none;startFill=0;" parent="1" source="98" target="101" edge="1">
                    <mxGeometry relative="1" as="geometry"/>
                </mxCell>
                <mxCell id="98" value="sender" style="whiteSpace=wrap;html=1;" parent="1" vertex="1">
                    <mxGeometry x="210" y="580" width="120" height="60" as="geometry"/>
                </mxCell>
                <mxCell id="100" value="data_in&lt;br&gt;2 x 14 bit" style="text;html=1;align=center;verticalAlign=middle;resizable=0;points=[];autosize=1;" parent="1" vertex="1">
                    <mxGeometry x="350" y="200" width="60" height="30" as="geometry"/>
                </mxCell>
                <mxCell id="105" style="edgeStyle=orthogonalEdgeStyle;rounded=0;orthogonalLoop=1;jettySize=auto;html=1;exitX=0.5;exitY=0;exitDx=0;exitDy=0;entryX=0.5;entryY=1;entryDx=0;entryDy=0;startArrow=none;startFill=0;" parent="1" source="101" target="104" edge="1">
                    <mxGeometry relative="1" as="geometry"/>
                </mxCell>
                <mxCell id="101" value="Synchronizer" style="whiteSpace=wrap;html=1;" parent="1" vertex="1">
                    <mxGeometry x="100" y="465" width="120" height="60" as="geometry"/>
                </mxCell>
                <mxCell id="103" value="Data&lt;br&gt;2 x 14 bit" style="text;html=1;align=center;verticalAlign=middle;resizable=0;points=[];autosize=1;" parent="1" vertex="1">
                    <mxGeometry x="100" y="535" width="60" height="30" as="geometry"/>
                </mxCell>
                <mxCell id="108" style="edgeStyle=orthogonalEdgeStyle;rounded=0;orthogonalLoop=1;jettySize=auto;html=1;exitX=0.5;exitY=0;exitDx=0;exitDy=0;entryX=0.5;entryY=1;entryDx=0;entryDy=0;startArrow=none;startFill=0;" parent="1" source="104" target="107" edge="1">
                    <mxGeometry relative="1" as="geometry"/>
                </mxCell>
                <mxCell id="104" value="Demodulation" style="whiteSpace=wrap;html=1;" parent="1" vertex="1">
                    <mxGeometry x="100" y="355" width="120" height="60" as="geometry"/>
                </mxCell>
                <mxCell id="106" value="Data&lt;br&gt;2 x 14 bit" style="text;html=1;align=center;verticalAlign=middle;resizable=0;points=[];autosize=1;" parent="1" vertex="1">
                    <mxGeometry x="100" y="420" width="60" height="30" as="geometry"/>
                </mxCell>
                <mxCell id="110" style="edgeStyle=orthogonalEdgeStyle;rounded=0;orthogonalLoop=1;jettySize=auto;html=1;exitX=0.5;exitY=0;exitDx=0;exitDy=0;entryX=0.58;entryY=1.084;entryDx=0;entryDy=0;entryPerimeter=0;startArrow=none;startFill=0;" parent="1" source="107" target="97" edge="1">
                    <mxGeometry relative="1" as="geometry"/>
                </mxCell>
                <mxCell id="107" value="Buffer" style="whiteSpace=wrap;html=1;" parent="1" vertex="1">
                    <mxGeometry x="100" y="250" width="120" height="60" as="geometry"/>
                </mxCell>
                <mxCell id="109" value="data&lt;br&gt;2 bit" style="text;html=1;align=center;verticalAlign=middle;resizable=0;points=[];autosize=1;" parent="1" vertex="1">
                    <mxGeometry x="160" y="320" width="40" height="30" as="geometry"/>
                </mxCell>
                <mxCell id="111" value="FIFO Signals" style="text;html=1;align=center;verticalAlign=middle;resizable=0;points=[];autosize=1;" parent="1" vertex="1">
                    <mxGeometry x="160" y="205" width="90" height="20" as="geometry"/>
                </mxCell>
            </root>
        </mxGraphModel>
    </diagram>
</mxfile>